solid MYSOLID created by IVREAD, original data in humanoids_tri.obj
  facet normal    1.00000       0.00000       0.00000    
    outer loop
      vertex    3.25000      -2.48000       14.0000    
      vertex    3.25000      -2.48000       9.01000    
      vertex    3.25000       2.48000       9.01000    
  endloop
endfacet
  facet normal    1.00000       0.00000       0.00000    
    outer loop
      vertex    3.25000      -2.48000       14.0000    
      vertex    3.25000       2.48000       9.01000    
      vertex    3.25000       2.48000       14.0000    
  endloop
endfacet
  facet normal    0.00000      -1.00000       0.00000    
    outer loop
      vertex   0.773000      -2.48000       14.0000    
      vertex   0.773000      -2.48000       9.01000    
      vertex    3.25000      -2.48000       9.01000    
  endloop
endfacet
  facet normal    0.00000      -1.00000       0.00000    
    outer loop
      vertex   0.773000      -2.48000       14.0000    
      vertex    3.25000      -2.48000       9.01000    
      vertex    3.25000      -2.48000       14.0000    
  endloop
endfacet
  facet normal   -1.00000       0.00000       0.00000    
    outer loop
      vertex   0.773000       2.48000       14.0000    
      vertex   0.773000       2.48000       9.01000    
      vertex   0.773000      -2.48000       9.01000    
  endloop
endfacet
  facet normal   -1.00000       0.00000       0.00000    
    outer loop
      vertex   0.773000       2.48000       14.0000    
      vertex   0.773000      -2.48000       9.01000    
      vertex   0.773000      -2.48000       14.0000    
  endloop
endfacet
  facet normal    0.00000       1.00000       0.00000    
    outer loop
      vertex    3.25000       2.48000       14.0000    
      vertex    3.25000       2.48000       9.01000    
      vertex   0.773000       2.48000       9.01000    
  endloop
endfacet
  facet normal    0.00000       1.00000       0.00000    
    outer loop
      vertex    3.25000       2.48000       14.0000    
      vertex   0.773000       2.48000       9.01000    
      vertex   0.773000       2.48000       14.0000    
  endloop
endfacet
  facet normal    0.00000       0.00000       1.00000    
    outer loop
      vertex   0.773000       2.48000       14.0000    
      vertex   0.773000      -2.48000       14.0000    
      vertex    3.25000      -2.48000       14.0000    
  endloop
endfacet
  facet normal    0.00000       0.00000       1.00000    
    outer loop
      vertex   0.773000       2.48000       14.0000    
      vertex    3.25000      -2.48000       14.0000    
      vertex    3.25000       2.48000       14.0000    
  endloop
endfacet
  facet normal    0.00000       0.00000      -1.00000    
    outer loop
      vertex    3.25000      -2.48000       9.01000    
      vertex   0.773000      -2.48000       9.01000    
      vertex   0.773000       2.48000       9.01000    
  endloop
endfacet
  facet normal    0.00000       0.00000      -1.00000    
    outer loop
      vertex    3.25000      -2.48000       9.01000    
      vertex   0.773000       2.48000       9.01000    
      vertex    3.25000       2.48000       9.01000    
  endloop
endfacet
  facet normal    1.00000       0.00000       0.00000    
    outer loop
      vertex    3.47000      -1.29000       17.4000    
      vertex    3.47000      -1.29000       15.0000    
      vertex    3.47000       1.19000       15.0000    
  endloop
endfacet
  facet normal    1.00000       0.00000       0.00000    
    outer loop
      vertex    3.47000      -1.29000       17.4000    
      vertex    3.47000       1.19000       15.0000    
      vertex    3.47000       1.19000       17.4000    
  endloop
endfacet
  facet normal    0.00000      -1.00000       0.00000    
    outer loop
      vertex   0.601000      -1.29000       17.4000    
      vertex   0.601000      -1.29000       15.0000    
      vertex    3.47000      -1.29000       15.0000    
  endloop
endfacet
  facet normal    0.00000      -1.00000       0.00000    
    outer loop
      vertex   0.601000      -1.29000       17.4000    
      vertex    3.47000      -1.29000       15.0000    
      vertex    3.47000      -1.29000       17.4000    
  endloop
endfacet
  facet normal   -1.00000       0.00000       0.00000    
    outer loop
      vertex   0.601000       1.19000       17.4000    
      vertex   0.601000       1.19000       15.0000    
      vertex   0.601000      -1.29000       15.0000    
  endloop
endfacet
  facet normal   -1.00000       0.00000       0.00000    
    outer loop
      vertex   0.601000       1.19000       17.4000    
      vertex   0.601000      -1.29000       15.0000    
      vertex   0.601000      -1.29000       17.4000    
  endloop
endfacet
  facet normal    0.00000       1.00000       0.00000    
    outer loop
      vertex    3.47000       1.19000       17.4000    
      vertex    3.47000       1.19000       15.0000    
      vertex   0.601000       1.19000       15.0000    
  endloop
endfacet
  facet normal    0.00000       1.00000       0.00000    
    outer loop
      vertex    3.47000       1.19000       17.4000    
      vertex   0.601000       1.19000       15.0000    
      vertex   0.601000       1.19000       17.4000    
  endloop
endfacet
  facet normal    0.00000       0.00000       1.00000    
    outer loop
      vertex   0.601000       1.19000       17.4000    
      vertex   0.601000      -1.29000       17.4000    
      vertex    3.47000      -1.29000       17.4000    
  endloop
endfacet
  facet normal    0.00000       0.00000       1.00000    
    outer loop
      vertex   0.601000       1.19000       17.4000    
      vertex    3.47000      -1.29000       17.4000    
      vertex    3.47000       1.19000       17.4000    
  endloop
endfacet
  facet normal    0.00000       0.00000      -1.00000    
    outer loop
      vertex    3.47000      -1.29000       15.0000    
      vertex   0.601000      -1.29000       15.0000    
      vertex   0.601000       1.19000       15.0000    
  endloop
endfacet
  facet normal    0.00000       0.00000      -1.00000    
    outer loop
      vertex    3.47000      -1.29000       15.0000    
      vertex   0.601000       1.19000       15.0000    
      vertex    3.47000       1.19000       15.0000    
  endloop
endfacet
  facet normal    1.00000       0.00000       0.00000    
    outer loop
      vertex    3.15000      -2.47000       8.01000    
      vertex    3.15000      -2.47000       3.05000    
      vertex    3.15000     -0.486000       3.05000    
  endloop
endfacet
  facet normal    1.00000       0.00000       0.00000    
    outer loop
      vertex    3.15000      -2.47000       8.01000    
      vertex    3.15000     -0.486000       3.05000    
      vertex    3.15000     -0.486000       8.01000    
  endloop
endfacet
  facet normal    0.00000      -1.00000       0.00000    
    outer loop
      vertex   0.892000      -2.47000       8.01000    
      vertex   0.892000      -2.47000       3.05000    
      vertex    3.15000      -2.47000       3.05000    
  endloop
endfacet
  facet normal    0.00000      -1.00000       0.00000    
    outer loop
      vertex   0.892000      -2.47000       8.01000    
      vertex    3.15000      -2.47000       3.05000    
      vertex    3.15000      -2.47000       8.01000    
  endloop
endfacet
  facet normal   -1.00000       0.00000       0.00000    
    outer loop
      vertex   0.892000     -0.486000       8.01000    
      vertex   0.892000     -0.486000       3.05000    
      vertex   0.892000      -2.47000       3.05000    
  endloop
endfacet
  facet normal   -1.00000       0.00000       0.00000    
    outer loop
      vertex   0.892000     -0.486000       8.01000    
      vertex   0.892000      -2.47000       3.05000    
      vertex   0.892000      -2.47000       8.01000    
  endloop
endfacet
  facet normal    0.00000       1.00000       0.00000    
    outer loop
      vertex    3.15000     -0.486000       8.01000    
      vertex    3.15000     -0.486000       3.05000    
      vertex   0.892000     -0.486000       3.05000    
  endloop
endfacet
  facet normal    0.00000       1.00000       0.00000    
    outer loop
      vertex    3.15000     -0.486000       8.01000    
      vertex   0.892000     -0.486000       3.05000    
      vertex   0.892000     -0.486000       8.01000    
  endloop
endfacet
  facet normal    0.00000       0.00000       1.00000    
    outer loop
      vertex   0.892000     -0.486000       8.01000    
      vertex   0.892000      -2.47000       8.01000    
      vertex    3.15000      -2.47000       8.01000    
  endloop
endfacet
  facet normal    0.00000       0.00000       1.00000    
    outer loop
      vertex   0.892000     -0.486000       8.01000    
      vertex    3.15000      -2.47000       8.01000    
      vertex    3.15000     -0.486000       8.01000    
  endloop
endfacet
  facet normal    0.00000       0.00000      -1.00000    
    outer loop
      vertex    3.15000      -2.47000       3.05000    
      vertex   0.892000      -2.47000       3.05000    
      vertex   0.892000     -0.486000       3.05000    
  endloop
endfacet
  facet normal    0.00000       0.00000      -1.00000    
    outer loop
      vertex    3.15000      -2.47000       3.05000    
      vertex   0.892000     -0.486000       3.05000    
      vertex    3.15000     -0.486000       3.05000    
  endloop
endfacet
  facet normal    1.00000       0.00000       0.00000    
    outer loop
      vertex    3.23000      -3.96000       14.0000    
      vertex    3.23000      -3.96000       9.01000    
      vertex    3.23000      -2.48000       9.01000    
  endloop
endfacet
  facet normal    1.00000       0.00000       0.00000    
    outer loop
      vertex    3.23000      -3.96000       14.0000    
      vertex    3.23000      -2.48000       9.01000    
      vertex    3.23000      -2.48000       14.0000    
  endloop
endfacet
  facet normal    0.00000      -1.00000       0.00000    
    outer loop
      vertex   0.747000      -3.96000       14.0000    
      vertex   0.747000      -3.96000       9.01000    
      vertex    3.23000      -3.96000       9.01000    
  endloop
endfacet
  facet normal    0.00000      -1.00000       0.00000    
    outer loop
      vertex   0.747000      -3.96000       14.0000    
      vertex    3.23000      -3.96000       9.01000    
      vertex    3.23000      -3.96000       14.0000    
  endloop
endfacet
  facet normal   -1.00000       0.00000       0.00000    
    outer loop
      vertex   0.747000      -2.48000       14.0000    
      vertex   0.747000      -2.48000       9.01000    
      vertex   0.747000      -3.96000       9.01000    
  endloop
endfacet
  facet normal   -1.00000       0.00000       0.00000    
    outer loop
      vertex   0.747000      -2.48000       14.0000    
      vertex   0.747000      -3.96000       9.01000    
      vertex   0.747000      -3.96000       14.0000    
  endloop
endfacet
  facet normal    0.00000       1.00000       0.00000    
    outer loop
      vertex    3.23000      -2.48000       14.0000    
      vertex    3.23000      -2.48000       9.01000    
      vertex   0.747000      -2.48000       9.01000    
  endloop
endfacet
  facet normal    0.00000       1.00000       0.00000    
    outer loop
      vertex    3.23000      -2.48000       14.0000    
      vertex   0.747000      -2.48000       9.01000    
      vertex   0.747000      -2.48000       14.0000    
  endloop
endfacet
  facet normal    0.00000       0.00000       1.00000    
    outer loop
      vertex   0.747000      -2.48000       14.0000    
      vertex   0.747000      -3.96000       14.0000    
      vertex    3.23000      -3.96000       14.0000    
  endloop
endfacet
  facet normal    0.00000       0.00000       1.00000    
    outer loop
      vertex   0.747000      -2.48000       14.0000    
      vertex    3.23000      -3.96000       14.0000    
      vertex    3.23000      -2.48000       14.0000    
  endloop
endfacet
  facet normal    0.00000       0.00000      -1.00000    
    outer loop
      vertex    3.23000      -3.96000       9.01000    
      vertex   0.747000      -3.96000       9.01000    
      vertex   0.747000      -2.48000       9.01000    
  endloop
endfacet
  facet normal    0.00000       0.00000      -1.00000    
    outer loop
      vertex    3.23000      -3.96000       9.01000    
      vertex   0.747000      -2.48000       9.01000    
      vertex    3.23000      -2.48000       9.01000    
  endloop
endfacet
  facet normal    1.00000       0.00000       0.00000    
    outer loop
      vertex    3.27000       2.46000       14.0000    
      vertex    3.27000       2.46000       9.01000    
      vertex    3.27000       3.95000       9.01000    
  endloop
endfacet
  facet normal    1.00000       0.00000       0.00000    
    outer loop
      vertex    3.27000       2.46000       14.0000    
      vertex    3.27000       3.95000       9.01000    
      vertex    3.27000       3.95000       14.0000    
  endloop
endfacet
  facet normal    0.00000      -1.00000       0.00000    
    outer loop
      vertex   0.795000       2.46000       14.0000    
      vertex   0.795000       2.46000       9.01000    
      vertex    3.27000       2.46000       9.01000    
  endloop
endfacet
  facet normal    0.00000      -1.00000       0.00000    
    outer loop
      vertex   0.795000       2.46000       14.0000    
      vertex    3.27000       2.46000       9.01000    
      vertex    3.27000       2.46000       14.0000    
  endloop
endfacet
  facet normal   -1.00000       0.00000       0.00000    
    outer loop
      vertex   0.795000       3.95000       14.0000    
      vertex   0.795000       3.95000       9.01000    
      vertex   0.795000       2.46000       9.01000    
  endloop
endfacet
  facet normal   -1.00000       0.00000       0.00000    
    outer loop
      vertex   0.795000       3.95000       14.0000    
      vertex   0.795000       2.46000       9.01000    
      vertex   0.795000       2.46000       14.0000    
  endloop
endfacet
  facet normal    0.00000       1.00000       0.00000    
    outer loop
      vertex    3.27000       3.95000       14.0000    
      vertex    3.27000       3.95000       9.01000    
      vertex   0.795000       3.95000       9.01000    
  endloop
endfacet
  facet normal    0.00000       1.00000       0.00000    
    outer loop
      vertex    3.27000       3.95000       14.0000    
      vertex   0.795000       3.95000       9.01000    
      vertex   0.795000       3.95000       14.0000    
  endloop
endfacet
  facet normal    0.00000       0.00000       1.00000    
    outer loop
      vertex   0.795000       3.95000       14.0000    
      vertex   0.795000       2.46000       14.0000    
      vertex    3.27000       2.46000       14.0000    
  endloop
endfacet
  facet normal    0.00000       0.00000       1.00000    
    outer loop
      vertex   0.795000       3.95000       14.0000    
      vertex    3.27000       2.46000       14.0000    
      vertex    3.27000       3.95000       14.0000    
  endloop
endfacet
  facet normal    0.00000       0.00000      -1.00000    
    outer loop
      vertex    3.27000       2.46000       9.01000    
      vertex   0.795000       2.46000       9.01000    
      vertex   0.795000       3.95000       9.01000    
  endloop
endfacet
  facet normal    0.00000       0.00000      -1.00000    
    outer loop
      vertex    3.27000       2.46000       9.01000    
      vertex   0.795000       3.95000       9.01000    
      vertex    3.27000       3.95000       9.01000    
  endloop
endfacet
  facet normal    1.00000       0.00000       0.00000    
    outer loop
      vertex    2.49000     -0.498000       15.0000    
      vertex    2.49000     -0.498000       14.0000    
      vertex    2.49000      0.493000       14.0000    
  endloop
endfacet
  facet normal    1.00000       0.00000       0.00000    
    outer loop
      vertex    2.49000     -0.498000       15.0000    
      vertex    2.49000      0.493000       14.0000    
      vertex    2.49000      0.493000       15.0000    
  endloop
endfacet
  facet normal    0.00000      -1.00000       0.00000    
    outer loop
      vertex    1.50000     -0.498000       15.0000    
      vertex    1.50000     -0.498000       14.0000    
      vertex    2.49000     -0.498000       14.0000    
  endloop
endfacet
  facet normal    0.00000      -1.00000       0.00000    
    outer loop
      vertex    1.50000     -0.498000       15.0000    
      vertex    2.49000     -0.498000       14.0000    
      vertex    2.49000     -0.498000       15.0000    
  endloop
endfacet
  facet normal   -1.00000       0.00000       0.00000    
    outer loop
      vertex    1.50000      0.493000       15.0000    
      vertex    1.50000      0.493000       14.0000    
      vertex    1.50000     -0.498000       14.0000    
  endloop
endfacet
  facet normal   -1.00000       0.00000       0.00000    
    outer loop
      vertex    1.50000      0.493000       15.0000    
      vertex    1.50000     -0.498000       14.0000    
      vertex    1.50000     -0.498000       15.0000    
  endloop
endfacet
  facet normal    0.00000       1.00000       0.00000    
    outer loop
      vertex    2.49000      0.493000       15.0000    
      vertex    2.49000      0.493000       14.0000    
      vertex    1.50000      0.493000       14.0000    
  endloop
endfacet
  facet normal    0.00000       1.00000       0.00000    
    outer loop
      vertex    2.49000      0.493000       15.0000    
      vertex    1.50000      0.493000       14.0000    
      vertex    1.50000      0.493000       15.0000    
  endloop
endfacet
  facet normal    0.00000       0.00000       1.00000    
    outer loop
      vertex    1.50000      0.493000       15.0000    
      vertex    1.50000     -0.498000       15.0000    
      vertex    2.49000     -0.498000       15.0000    
  endloop
endfacet
  facet normal    0.00000       0.00000       1.00000    
    outer loop
      vertex    1.50000      0.493000       15.0000    
      vertex    2.49000     -0.498000       15.0000    
      vertex    2.49000      0.493000       15.0000    
  endloop
endfacet
  facet normal    0.00000       0.00000      -1.00000    
    outer loop
      vertex    2.49000     -0.498000       14.0000    
      vertex    1.50000     -0.498000       14.0000    
      vertex    1.50000      0.493000       14.0000    
  endloop
endfacet
  facet normal    0.00000       0.00000      -1.00000    
    outer loop
      vertex    2.49000     -0.498000       14.0000    
      vertex    1.50000      0.493000       14.0000    
      vertex    2.49000      0.493000       14.0000    
  endloop
endfacet
  facet normal    1.00000       0.00000       0.00000    
    outer loop
      vertex    3.25000      -2.50000       9.01000    
      vertex    3.25000      -2.50000       8.01000    
      vertex    3.25000       2.45000       8.01000    
  endloop
endfacet
  facet normal    1.00000       0.00000       0.00000    
    outer loop
      vertex    3.25000      -2.50000       9.01000    
      vertex    3.25000       2.45000       8.01000    
      vertex    3.25000       2.45000       9.01000    
  endloop
endfacet
  facet normal    0.00000      -1.00000       0.00000    
    outer loop
      vertex   0.771000      -2.50000       9.01000    
      vertex   0.771000      -2.50000       8.01000    
      vertex    3.25000      -2.50000       8.01000    
  endloop
endfacet
  facet normal    0.00000      -1.00000       0.00000    
    outer loop
      vertex   0.771000      -2.50000       9.01000    
      vertex    3.25000      -2.50000       8.01000    
      vertex    3.25000      -2.50000       9.01000    
  endloop
endfacet
  facet normal   -1.00000       0.00000       0.00000    
    outer loop
      vertex   0.771000       2.45000       9.01000    
      vertex   0.771000       2.45000       8.01000    
      vertex   0.771000      -2.50000       8.01000    
  endloop
endfacet
  facet normal   -1.00000       0.00000       0.00000    
    outer loop
      vertex   0.771000       2.45000       9.01000    
      vertex   0.771000      -2.50000       8.01000    
      vertex   0.771000      -2.50000       9.01000    
  endloop
endfacet
  facet normal    0.00000       1.00000       0.00000    
    outer loop
      vertex    3.25000       2.45000       9.01000    
      vertex    3.25000       2.45000       8.01000    
      vertex   0.771000       2.45000       8.01000    
  endloop
endfacet
  facet normal    0.00000       1.00000       0.00000    
    outer loop
      vertex    3.25000       2.45000       9.01000    
      vertex   0.771000       2.45000       8.01000    
      vertex   0.771000       2.45000       9.01000    
  endloop
endfacet
  facet normal    0.00000       0.00000       1.00000    
    outer loop
      vertex   0.771000       2.45000       9.01000    
      vertex   0.771000      -2.50000       9.01000    
      vertex    3.25000      -2.50000       9.01000    
  endloop
endfacet
  facet normal    0.00000       0.00000       1.00000    
    outer loop
      vertex   0.771000       2.45000       9.01000    
      vertex    3.25000      -2.50000       9.01000    
      vertex    3.25000       2.45000       9.01000    
  endloop
endfacet
  facet normal    0.00000       0.00000      -1.00000    
    outer loop
      vertex    3.25000      -2.50000       8.01000    
      vertex   0.771000      -2.50000       8.01000    
      vertex   0.771000       2.45000       8.01000    
  endloop
endfacet
  facet normal    0.00000       0.00000      -1.00000    
    outer loop
      vertex    3.25000      -2.50000       8.01000    
      vertex   0.771000       2.45000       8.01000    
      vertex    3.25000       2.45000       8.01000    
  endloop
endfacet
  facet normal    1.00000       0.00000       0.00000    
    outer loop
      vertex    3.27000      0.465000       8.01000    
      vertex    3.27000      0.465000       3.05000    
      vertex    3.27000       2.45000       3.05000    
  endloop
endfacet
  facet normal    1.00000       0.00000       0.00000    
    outer loop
      vertex    3.27000      0.465000       8.01000    
      vertex    3.27000       2.45000       3.05000    
      vertex    3.27000       2.45000       8.01000    
  endloop
endfacet
  facet normal    0.00000      -1.00000       0.00000    
    outer loop
      vertex   0.795000      0.465000       8.01000    
      vertex   0.795000      0.465000       3.05000    
      vertex    3.27000      0.465000       3.05000    
  endloop
endfacet
  facet normal    0.00000      -1.00000       0.00000    
    outer loop
      vertex   0.795000      0.465000       8.01000    
      vertex    3.27000      0.465000       3.05000    
      vertex    3.27000      0.465000       8.01000    
  endloop
endfacet
  facet normal   -1.00000       0.00000       0.00000    
    outer loop
      vertex   0.795000       2.45000       8.01000    
      vertex   0.795000       2.45000       3.05000    
      vertex   0.795000      0.465000       3.05000    
  endloop
endfacet
  facet normal   -1.00000       0.00000       0.00000    
    outer loop
      vertex   0.795000       2.45000       8.01000    
      vertex   0.795000      0.465000       3.05000    
      vertex   0.795000      0.465000       8.01000    
  endloop
endfacet
  facet normal    0.00000       1.00000       0.00000    
    outer loop
      vertex    3.27000       2.45000       8.01000    
      vertex    3.27000       2.45000       3.05000    
      vertex   0.795000       2.45000       3.05000    
  endloop
endfacet
  facet normal    0.00000       1.00000       0.00000    
    outer loop
      vertex    3.27000       2.45000       8.01000    
      vertex   0.795000       2.45000       3.05000    
      vertex   0.795000       2.45000       8.01000    
  endloop
endfacet
  facet normal    0.00000       0.00000       1.00000    
    outer loop
      vertex   0.795000       2.45000       8.01000    
      vertex   0.795000      0.465000       8.01000    
      vertex    3.27000      0.465000       8.01000    
  endloop
endfacet
  facet normal    0.00000       0.00000       1.00000    
    outer loop
      vertex   0.795000       2.45000       8.01000    
      vertex    3.27000      0.465000       8.01000    
      vertex    3.27000       2.45000       8.01000    
  endloop
endfacet
  facet normal    0.00000       0.00000      -1.00000    
    outer loop
      vertex    3.27000      0.465000       3.05000    
      vertex   0.795000      0.465000       3.05000    
      vertex   0.795000       2.45000       3.05000    
  endloop
endfacet
  facet normal    0.00000       0.00000      -1.00000    
    outer loop
      vertex    3.27000      0.465000       3.05000    
      vertex   0.795000       2.45000       3.05000    
      vertex    3.27000       2.45000       3.05000    
  endloop
endfacet
  facet normal    1.00000       0.00000       0.00000    
    outer loop
      vertex    13.2500      -2.48000       14.0000    
      vertex    13.2500      -2.48000       9.01000    
      vertex    13.2500       2.48000       9.01000    
  endloop
endfacet
  facet normal    1.00000       0.00000       0.00000    
    outer loop
      vertex    13.2500      -2.48000       14.0000    
      vertex    13.2500       2.48000       9.01000    
      vertex    13.2500       2.48000       14.0000    
  endloop
endfacet
  facet normal    0.00000      -1.00000       0.00000    
    outer loop
      vertex    10.7730      -2.48000       14.0000    
      vertex    10.7730      -2.48000       9.01000    
      vertex    13.2500      -2.48000       9.01000    
  endloop
endfacet
  facet normal    0.00000      -1.00000       0.00000    
    outer loop
      vertex    10.7730      -2.48000       14.0000    
      vertex    13.2500      -2.48000       9.01000    
      vertex    13.2500      -2.48000       14.0000    
  endloop
endfacet
  facet normal   -1.00000       0.00000       0.00000    
    outer loop
      vertex    10.7730       2.48000       14.0000    
      vertex    10.7730       2.48000       9.01000    
      vertex    10.7730      -2.48000       9.01000    
  endloop
endfacet
  facet normal   -1.00000       0.00000       0.00000    
    outer loop
      vertex    10.7730       2.48000       14.0000    
      vertex    10.7730      -2.48000       9.01000    
      vertex    10.7730      -2.48000       14.0000    
  endloop
endfacet
  facet normal    0.00000       1.00000       0.00000    
    outer loop
      vertex    13.2500       2.48000       14.0000    
      vertex    13.2500       2.48000       9.01000    
      vertex    10.7730       2.48000       9.01000    
  endloop
endfacet
  facet normal    0.00000       1.00000       0.00000    
    outer loop
      vertex    13.2500       2.48000       14.0000    
      vertex    10.7730       2.48000       9.01000    
      vertex    10.7730       2.48000       14.0000    
  endloop
endfacet
  facet normal    0.00000       0.00000       1.00000    
    outer loop
      vertex    10.7730       2.48000       14.0000    
      vertex    10.7730      -2.48000       14.0000    
      vertex    13.2500      -2.48000       14.0000    
  endloop
endfacet
  facet normal    0.00000       0.00000       1.00000    
    outer loop
      vertex    10.7730       2.48000       14.0000    
      vertex    13.2500      -2.48000       14.0000    
      vertex    13.2500       2.48000       14.0000    
  endloop
endfacet
  facet normal    0.00000       0.00000      -1.00000    
    outer loop
      vertex    13.2500      -2.48000       9.01000    
      vertex    10.7730      -2.48000       9.01000    
      vertex    10.7730       2.48000       9.01000    
  endloop
endfacet
  facet normal    0.00000       0.00000      -1.00000    
    outer loop
      vertex    13.2500      -2.48000       9.01000    
      vertex    10.7730       2.48000       9.01000    
      vertex    13.2500       2.48000       9.01000    
  endloop
endfacet
  facet normal    1.00000       0.00000       0.00000    
    outer loop
      vertex    13.4700      -1.29000       17.4000    
      vertex    13.4700      -1.29000       15.0000    
      vertex    13.4700       1.19000       15.0000    
  endloop
endfacet
  facet normal    1.00000       0.00000       0.00000    
    outer loop
      vertex    13.4700      -1.29000       17.4000    
      vertex    13.4700       1.19000       15.0000    
      vertex    13.4700       1.19000       17.4000    
  endloop
endfacet
  facet normal    0.00000      -1.00000       0.00000    
    outer loop
      vertex    10.6010      -1.29000       17.4000    
      vertex    10.6010      -1.29000       15.0000    
      vertex    13.4700      -1.29000       15.0000    
  endloop
endfacet
  facet normal    0.00000      -1.00000       0.00000    
    outer loop
      vertex    10.6010      -1.29000       17.4000    
      vertex    13.4700      -1.29000       15.0000    
      vertex    13.4700      -1.29000       17.4000    
  endloop
endfacet
  facet normal   -1.00000       0.00000       0.00000    
    outer loop
      vertex    10.6010       1.19000       17.4000    
      vertex    10.6010       1.19000       15.0000    
      vertex    10.6010      -1.29000       15.0000    
  endloop
endfacet
  facet normal   -1.00000       0.00000       0.00000    
    outer loop
      vertex    10.6010       1.19000       17.4000    
      vertex    10.6010      -1.29000       15.0000    
      vertex    10.6010      -1.29000       17.4000    
  endloop
endfacet
  facet normal    0.00000       1.00000       0.00000    
    outer loop
      vertex    13.4700       1.19000       17.4000    
      vertex    13.4700       1.19000       15.0000    
      vertex    10.6010       1.19000       15.0000    
  endloop
endfacet
  facet normal    0.00000       1.00000       0.00000    
    outer loop
      vertex    13.4700       1.19000       17.4000    
      vertex    10.6010       1.19000       15.0000    
      vertex    10.6010       1.19000       17.4000    
  endloop
endfacet
  facet normal    0.00000       0.00000       1.00000    
    outer loop
      vertex    10.6010       1.19000       17.4000    
      vertex    10.6010      -1.29000       17.4000    
      vertex    13.4700      -1.29000       17.4000    
  endloop
endfacet
  facet normal    0.00000       0.00000       1.00000    
    outer loop
      vertex    10.6010       1.19000       17.4000    
      vertex    13.4700      -1.29000       17.4000    
      vertex    13.4700       1.19000       17.4000    
  endloop
endfacet
  facet normal    0.00000       0.00000      -1.00000    
    outer loop
      vertex    13.4700      -1.29000       15.0000    
      vertex    10.6010      -1.29000       15.0000    
      vertex    10.6010       1.19000       15.0000    
  endloop
endfacet
  facet normal    0.00000       0.00000      -1.00000    
    outer loop
      vertex    13.4700      -1.29000       15.0000    
      vertex    10.6010       1.19000       15.0000    
      vertex    13.4700       1.19000       15.0000    
  endloop
endfacet
  facet normal    1.00000       0.00000       0.00000    
    outer loop
      vertex    13.1500      -2.47000       8.01000    
      vertex    13.1500      -2.47000       3.05000    
      vertex    13.1500     -0.486000       3.05000    
  endloop
endfacet
  facet normal    1.00000       0.00000       0.00000    
    outer loop
      vertex    13.1500      -2.47000       8.01000    
      vertex    13.1500     -0.486000       3.05000    
      vertex    13.1500     -0.486000       8.01000    
  endloop
endfacet
  facet normal    0.00000      -1.00000       0.00000    
    outer loop
      vertex    10.8920      -2.47000       8.01000    
      vertex    10.8920      -2.47000       3.05000    
      vertex    13.1500      -2.47000       3.05000    
  endloop
endfacet
  facet normal    0.00000      -1.00000       0.00000    
    outer loop
      vertex    10.8920      -2.47000       8.01000    
      vertex    13.1500      -2.47000       3.05000    
      vertex    13.1500      -2.47000       8.01000    
  endloop
endfacet
  facet normal   -1.00000       0.00000       0.00000    
    outer loop
      vertex    10.8920     -0.486000       8.01000    
      vertex    10.8920     -0.486000       3.05000    
      vertex    10.8920      -2.47000       3.05000    
  endloop
endfacet
  facet normal   -1.00000       0.00000       0.00000    
    outer loop
      vertex    10.8920     -0.486000       8.01000    
      vertex    10.8920      -2.47000       3.05000    
      vertex    10.8920      -2.47000       8.01000    
  endloop
endfacet
  facet normal    0.00000       1.00000       0.00000    
    outer loop
      vertex    13.1500     -0.486000       8.01000    
      vertex    13.1500     -0.486000       3.05000    
      vertex    10.8920     -0.486000       3.05000    
  endloop
endfacet
  facet normal    0.00000       1.00000       0.00000    
    outer loop
      vertex    13.1500     -0.486000       8.01000    
      vertex    10.8920     -0.486000       3.05000    
      vertex    10.8920     -0.486000       8.01000    
  endloop
endfacet
  facet normal    0.00000       0.00000       1.00000    
    outer loop
      vertex    10.8920     -0.486000       8.01000    
      vertex    10.8920      -2.47000       8.01000    
      vertex    13.1500      -2.47000       8.01000    
  endloop
endfacet
  facet normal    0.00000       0.00000       1.00000    
    outer loop
      vertex    10.8920     -0.486000       8.01000    
      vertex    13.1500      -2.47000       8.01000    
      vertex    13.1500     -0.486000       8.01000    
  endloop
endfacet
  facet normal    0.00000       0.00000      -1.00000    
    outer loop
      vertex    13.1500      -2.47000       3.05000    
      vertex    10.8920      -2.47000       3.05000    
      vertex    10.8920     -0.486000       3.05000    
  endloop
endfacet
  facet normal    0.00000       0.00000      -1.00000    
    outer loop
      vertex    13.1500      -2.47000       3.05000    
      vertex    10.8920     -0.486000       3.05000    
      vertex    13.1500     -0.486000       3.05000    
  endloop
endfacet
  facet normal    1.00000       0.00000       0.00000    
    outer loop
      vertex    13.2300      -3.96000       14.0000    
      vertex    13.2300      -3.96000       9.01000    
      vertex    13.2300      -2.48000       9.01000    
  endloop
endfacet
  facet normal    1.00000       0.00000       0.00000    
    outer loop
      vertex    13.2300      -3.96000       14.0000    
      vertex    13.2300      -2.48000       9.01000    
      vertex    13.2300      -2.48000       14.0000    
  endloop
endfacet
  facet normal    0.00000      -1.00000       0.00000    
    outer loop
      vertex    10.7470      -3.96000       14.0000    
      vertex    10.7470      -3.96000       9.01000    
      vertex    13.2300      -3.96000       9.01000    
  endloop
endfacet
  facet normal    0.00000      -1.00000       0.00000    
    outer loop
      vertex    10.7470      -3.96000       14.0000    
      vertex    13.2300      -3.96000       9.01000    
      vertex    13.2300      -3.96000       14.0000    
  endloop
endfacet
  facet normal   -1.00000       0.00000       0.00000    
    outer loop
      vertex    10.7470      -2.48000       14.0000    
      vertex    10.7470      -2.48000       9.01000    
      vertex    10.7470      -3.96000       9.01000    
  endloop
endfacet
  facet normal   -1.00000       0.00000       0.00000    
    outer loop
      vertex    10.7470      -2.48000       14.0000    
      vertex    10.7470      -3.96000       9.01000    
      vertex    10.7470      -3.96000       14.0000    
  endloop
endfacet
  facet normal    0.00000       1.00000       0.00000    
    outer loop
      vertex    13.2300      -2.48000       14.0000    
      vertex    13.2300      -2.48000       9.01000    
      vertex    10.7470      -2.48000       9.01000    
  endloop
endfacet
  facet normal    0.00000       1.00000       0.00000    
    outer loop
      vertex    13.2300      -2.48000       14.0000    
      vertex    10.7470      -2.48000       9.01000    
      vertex    10.7470      -2.48000       14.0000    
  endloop
endfacet
  facet normal    0.00000       0.00000       1.00000    
    outer loop
      vertex    10.7470      -2.48000       14.0000    
      vertex    10.7470      -3.96000       14.0000    
      vertex    13.2300      -3.96000       14.0000    
  endloop
endfacet
  facet normal    0.00000       0.00000       1.00000    
    outer loop
      vertex    10.7470      -2.48000       14.0000    
      vertex    13.2300      -3.96000       14.0000    
      vertex    13.2300      -2.48000       14.0000    
  endloop
endfacet
  facet normal    0.00000       0.00000      -1.00000    
    outer loop
      vertex    13.2300      -3.96000       9.01000    
      vertex    10.7470      -3.96000       9.01000    
      vertex    10.7470      -2.48000       9.01000    
  endloop
endfacet
  facet normal    0.00000       0.00000      -1.00000    
    outer loop
      vertex    13.2300      -3.96000       9.01000    
      vertex    10.7470      -2.48000       9.01000    
      vertex    13.2300      -2.48000       9.01000    
  endloop
endfacet
  facet normal    1.00000       0.00000       0.00000    
    outer loop
      vertex    13.2700       2.46000       14.0000    
      vertex    13.2700       2.46000       9.01000    
      vertex    13.2700       3.95000       9.01000    
  endloop
endfacet
  facet normal    1.00000       0.00000       0.00000    
    outer loop
      vertex    13.2700       2.46000       14.0000    
      vertex    13.2700       3.95000       9.01000    
      vertex    13.2700       3.95000       14.0000    
  endloop
endfacet
  facet normal    0.00000      -1.00000       0.00000    
    outer loop
      vertex    10.7950       2.46000       14.0000    
      vertex    10.7950       2.46000       9.01000    
      vertex    13.2700       2.46000       9.01000    
  endloop
endfacet
  facet normal    0.00000      -1.00000       0.00000    
    outer loop
      vertex    10.7950       2.46000       14.0000    
      vertex    13.2700       2.46000       9.01000    
      vertex    13.2700       2.46000       14.0000    
  endloop
endfacet
  facet normal   -1.00000       0.00000       0.00000    
    outer loop
      vertex    10.7950       3.95000       14.0000    
      vertex    10.7950       3.95000       9.01000    
      vertex    10.7950       2.46000       9.01000    
  endloop
endfacet
  facet normal   -1.00000       0.00000       0.00000    
    outer loop
      vertex    10.7950       3.95000       14.0000    
      vertex    10.7950       2.46000       9.01000    
      vertex    10.7950       2.46000       14.0000    
  endloop
endfacet
  facet normal    0.00000       1.00000       0.00000    
    outer loop
      vertex    13.2700       3.95000       14.0000    
      vertex    13.2700       3.95000       9.01000    
      vertex    10.7950       3.95000       9.01000    
  endloop
endfacet
  facet normal    0.00000       1.00000       0.00000    
    outer loop
      vertex    13.2700       3.95000       14.0000    
      vertex    10.7950       3.95000       9.01000    
      vertex    10.7950       3.95000       14.0000    
  endloop
endfacet
  facet normal    0.00000       0.00000       1.00000    
    outer loop
      vertex    10.7950       3.95000       14.0000    
      vertex    10.7950       2.46000       14.0000    
      vertex    13.2700       2.46000       14.0000    
  endloop
endfacet
  facet normal    0.00000       0.00000       1.00000    
    outer loop
      vertex    10.7950       3.95000       14.0000    
      vertex    13.2700       2.46000       14.0000    
      vertex    13.2700       3.95000       14.0000    
  endloop
endfacet
  facet normal    0.00000       0.00000      -1.00000    
    outer loop
      vertex    13.2700       2.46000       9.01000    
      vertex    10.7950       2.46000       9.01000    
      vertex    10.7950       3.95000       9.01000    
  endloop
endfacet
  facet normal    0.00000       0.00000      -1.00000    
    outer loop
      vertex    13.2700       2.46000       9.01000    
      vertex    10.7950       3.95000       9.01000    
      vertex    13.2700       3.95000       9.01000    
  endloop
endfacet
  facet normal    1.00000       0.00000       0.00000    
    outer loop
      vertex    12.4900     -0.498000       15.0000    
      vertex    12.4900     -0.498000       14.0000    
      vertex    12.4900      0.493000       14.0000    
  endloop
endfacet
  facet normal    1.00000       0.00000       0.00000    
    outer loop
      vertex    12.4900     -0.498000       15.0000    
      vertex    12.4900      0.493000       14.0000    
      vertex    12.4900      0.493000       15.0000    
  endloop
endfacet
  facet normal    0.00000      -1.00000       0.00000    
    outer loop
      vertex    11.5000     -0.498000       15.0000    
      vertex    11.5000     -0.498000       14.0000    
      vertex    12.4900     -0.498000       14.0000    
  endloop
endfacet
  facet normal    0.00000      -1.00000       0.00000    
    outer loop
      vertex    11.5000     -0.498000       15.0000    
      vertex    12.4900     -0.498000       14.0000    
      vertex    12.4900     -0.498000       15.0000    
  endloop
endfacet
  facet normal   -1.00000       0.00000       0.00000    
    outer loop
      vertex    11.5000      0.493000       15.0000    
      vertex    11.5000      0.493000       14.0000    
      vertex    11.5000     -0.498000       14.0000    
  endloop
endfacet
  facet normal   -1.00000       0.00000       0.00000    
    outer loop
      vertex    11.5000      0.493000       15.0000    
      vertex    11.5000     -0.498000       14.0000    
      vertex    11.5000     -0.498000       15.0000    
  endloop
endfacet
  facet normal    0.00000       1.00000       0.00000    
    outer loop
      vertex    12.4900      0.493000       15.0000    
      vertex    12.4900      0.493000       14.0000    
      vertex    11.5000      0.493000       14.0000    
  endloop
endfacet
  facet normal    0.00000       1.00000       0.00000    
    outer loop
      vertex    12.4900      0.493000       15.0000    
      vertex    11.5000      0.493000       14.0000    
      vertex    11.5000      0.493000       15.0000    
  endloop
endfacet
  facet normal    0.00000       0.00000       1.00000    
    outer loop
      vertex    11.5000      0.493000       15.0000    
      vertex    11.5000     -0.498000       15.0000    
      vertex    12.4900     -0.498000       15.0000    
  endloop
endfacet
  facet normal    0.00000       0.00000       1.00000    
    outer loop
      vertex    11.5000      0.493000       15.0000    
      vertex    12.4900     -0.498000       15.0000    
      vertex    12.4900      0.493000       15.0000    
  endloop
endfacet
  facet normal    0.00000       0.00000      -1.00000    
    outer loop
      vertex    12.4900     -0.498000       14.0000    
      vertex    11.5000     -0.498000       14.0000    
      vertex    11.5000      0.493000       14.0000    
  endloop
endfacet
  facet normal    0.00000       0.00000      -1.00000    
    outer loop
      vertex    12.4900     -0.498000       14.0000    
      vertex    11.5000      0.493000       14.0000    
      vertex    12.4900      0.493000       14.0000    
  endloop
endfacet
  facet normal    1.00000       0.00000       0.00000    
    outer loop
      vertex    13.2500      -2.50000       9.01000    
      vertex    13.2500      -2.50000       8.01000    
      vertex    13.2500       2.45000       8.01000    
  endloop
endfacet
  facet normal    1.00000       0.00000       0.00000    
    outer loop
      vertex    13.2500      -2.50000       9.01000    
      vertex    13.2500       2.45000       8.01000    
      vertex    13.2500       2.45000       9.01000    
  endloop
endfacet
  facet normal    0.00000      -1.00000       0.00000    
    outer loop
      vertex    10.7710      -2.50000       9.01000    
      vertex    10.7710      -2.50000       8.01000    
      vertex    13.2500      -2.50000       8.01000    
  endloop
endfacet
  facet normal    0.00000      -1.00000       0.00000    
    outer loop
      vertex    10.7710      -2.50000       9.01000    
      vertex    13.2500      -2.50000       8.01000    
      vertex    13.2500      -2.50000       9.01000    
  endloop
endfacet
  facet normal   -1.00000       0.00000       0.00000    
    outer loop
      vertex    10.7710       2.45000       9.01000    
      vertex    10.7710       2.45000       8.01000    
      vertex    10.7710      -2.50000       8.01000    
  endloop
endfacet
  facet normal   -1.00000       0.00000       0.00000    
    outer loop
      vertex    10.7710       2.45000       9.01000    
      vertex    10.7710      -2.50000       8.01000    
      vertex    10.7710      -2.50000       9.01000    
  endloop
endfacet
  facet normal    0.00000       1.00000       0.00000    
    outer loop
      vertex    13.2500       2.45000       9.01000    
      vertex    13.2500       2.45000       8.01000    
      vertex    10.7710       2.45000       8.01000    
  endloop
endfacet
  facet normal    0.00000       1.00000       0.00000    
    outer loop
      vertex    13.2500       2.45000       9.01000    
      vertex    10.7710       2.45000       8.01000    
      vertex    10.7710       2.45000       9.01000    
  endloop
endfacet
  facet normal    0.00000       0.00000       1.00000    
    outer loop
      vertex    10.7710       2.45000       9.01000    
      vertex    10.7710      -2.50000       9.01000    
      vertex    13.2500      -2.50000       9.01000    
  endloop
endfacet
  facet normal    0.00000       0.00000       1.00000    
    outer loop
      vertex    10.7710       2.45000       9.01000    
      vertex    13.2500      -2.50000       9.01000    
      vertex    13.2500       2.45000       9.01000    
  endloop
endfacet
  facet normal    0.00000       0.00000      -1.00000    
    outer loop
      vertex    13.2500      -2.50000       8.01000    
      vertex    10.7710      -2.50000       8.01000    
      vertex    10.7710       2.45000       8.01000    
  endloop
endfacet
  facet normal    0.00000       0.00000      -1.00000    
    outer loop
      vertex    13.2500      -2.50000       8.01000    
      vertex    10.7710       2.45000       8.01000    
      vertex    13.2500       2.45000       8.01000    
  endloop
endfacet
  facet normal    1.00000       0.00000       0.00000    
    outer loop
      vertex    13.2700      0.465000       8.01000    
      vertex    13.2700      0.465000       3.05000    
      vertex    13.2700       2.45000       3.05000    
  endloop
endfacet
  facet normal    1.00000       0.00000       0.00000    
    outer loop
      vertex    13.2700      0.465000       8.01000    
      vertex    13.2700       2.45000       3.05000    
      vertex    13.2700       2.45000       8.01000    
  endloop
endfacet
  facet normal    0.00000      -1.00000       0.00000    
    outer loop
      vertex    10.7950      0.465000       8.01000    
      vertex    10.7950      0.465000       3.05000    
      vertex    13.2700      0.465000       3.05000    
  endloop
endfacet
  facet normal    0.00000      -1.00000       0.00000    
    outer loop
      vertex    10.7950      0.465000       8.01000    
      vertex    13.2700      0.465000       3.05000    
      vertex    13.2700      0.465000       8.01000    
  endloop
endfacet
  facet normal   -1.00000       0.00000       0.00000    
    outer loop
      vertex    10.7950       2.45000       8.01000    
      vertex    10.7950       2.45000       3.05000    
      vertex    10.7950      0.465000       3.05000    
  endloop
endfacet
  facet normal   -1.00000       0.00000       0.00000    
    outer loop
      vertex    10.7950       2.45000       8.01000    
      vertex    10.7950      0.465000       3.05000    
      vertex    10.7950      0.465000       8.01000    
  endloop
endfacet
  facet normal    0.00000       1.00000       0.00000    
    outer loop
      vertex    13.2700       2.45000       8.01000    
      vertex    13.2700       2.45000       3.05000    
      vertex    10.7950       2.45000       3.05000    
  endloop
endfacet
  facet normal    0.00000       1.00000       0.00000    
    outer loop
      vertex    13.2700       2.45000       8.01000    
      vertex    10.7950       2.45000       3.05000    
      vertex    10.7950       2.45000       8.01000    
  endloop
endfacet
  facet normal    0.00000       0.00000       1.00000    
    outer loop
      vertex    10.7950       2.45000       8.01000    
      vertex    10.7950      0.465000       8.01000    
      vertex    13.2700      0.465000       8.01000    
  endloop
endfacet
  facet normal    0.00000       0.00000       1.00000    
    outer loop
      vertex    10.7950       2.45000       8.01000    
      vertex    13.2700      0.465000       8.01000    
      vertex    13.2700       2.45000       8.01000    
  endloop
endfacet
  facet normal    0.00000       0.00000      -1.00000    
    outer loop
      vertex    13.2700      0.465000       3.05000    
      vertex    10.7950      0.465000       3.05000    
      vertex    10.7950       2.45000       3.05000    
  endloop
endfacet
  facet normal    0.00000       0.00000      -1.00000    
    outer loop
      vertex    13.2700      0.465000       3.05000    
      vertex    10.7950       2.45000       3.05000    
      vertex    13.2700       2.45000       3.05000    
  endloop
endfacet
endsolid MYSOLID
